<svg width="144" height="108" viewBox="0 0 144 108" fill="none" xmlns="http://www.w3.org/2000/svg">
<path fill-rule="evenodd" clip-rule="evenodd" d="M71.3708 3.17776e-05L95.8193 52.3483C109.635 81.8969 117.347 98.6956 119.767 104.498L121.064 107.284L108.064 107.284L96.6781 107.284C96.3937 106.972 93.4147 100.304 89.0776 90.5956L89.076 90.592L89.0759 90.5917L89.0757 90.5912C85.8612 83.3956 81.9009 74.5306 77.7388 65.3459L70.4011 49.2557C67.9493 44.1872 65.6353 39.4277 63.6 35.2414L63.5966 35.2344L63.5965 35.2341L63.5961 35.2334C58.946 25.6688 55.7519 19.099 55.6958 18.6807L63.0146 9.95858L71.3708 3.17776e-05ZM29.1031 4.67696C45.8851 15.4063 43.6697 49.0984 30.3018 55.9851L23.6697 58.6378L29.3695 60.5244C37.1697 64.6628 40.0247 70.0157 41.3566 82.3957C42.5553 93.8128 45.0859 99.8653 50.1472 103.992C50.9352 104.631 51.8345 105.254 52.6104 105.792L52.6109 105.792L52.611 105.792C53.6708 106.527 54.5 107.101 54.5 107.339C54.0475 107.339 53.4106 107.348 52.6316 107.358H52.6314H52.6312H52.6309C47.3908 107.427 35.7232 107.581 30.5 105.833C27.0371 104.87 22.5768 101.929 19.6466 98.9024C15.3845 94.5006 14 90.2687 12.5 82.3957C10.5 70.6877 9.52417 67.1271 4.59613 62.8629L0 59.642L4.46294 56.6729C9.25779 53.3716 14.7186 42.2296 15.6509 33.2885C16.9828 22.6967 13.2535 11.2796 6.4608 4.67696L1 7.37314e-05H11.9216C20.8453 0.550295 23.7755 1.37563 29.1031 4.67696ZM138 107C141.314 107 144 104.314 144 101C144 97.6863 141.314 95 138 95C134.686 95 132 97.6863 132 101C132 104.314 134.686 107 138 107Z" fill="#4F46E5"/>
</svg>
